<?xml version="1.0" encoding="utf-8"?>
<!-- Copyright © 2013-2017 Metreeca srl. All Rights Reserved. -->

<svg viewBox="0 0 466 67" xmlns="http://www.w3.org/2000/svg">
	<g transform="matrix(1, 0, 0, 0.990099, 64.78344, 166.487122)">
		<path d="M 17.032 -155.172 L 17.222 -146.922 C 19.095 -149.982 21.439 -152.279 24.252 -153.812 C 27.065 -155.345 30.192 -156.112 33.632 -156.112 C 41.632 -156.112 46.709 -152.829 48.862 -146.262 C 50.675 -149.422 53.099 -151.852 56.132 -153.552 C 59.159 -155.259 62.502 -156.112 66.162 -156.112 C 77.035 -156.112 82.582 -150.172 82.802 -138.292 L 82.802 -104.452 L 77.172 -104.452 L 77.172 -137.872 C 77.145 -142.405 76.169 -145.765 74.242 -147.952 C 72.322 -150.139 69.189 -151.232 64.842 -151.232 C 60.815 -151.172 57.412 -149.868 54.632 -147.322 C 51.845 -144.775 50.299 -141.672 49.992 -138.012 L 49.992 -104.452 L 44.362 -104.452 L 44.362 -138.292 C 44.329 -142.639 43.305 -145.882 41.292 -148.021 C 39.279 -150.161 36.179 -151.232 31.992 -151.232 C 28.459 -151.232 25.425 -150.225 22.892 -148.212 C 20.359 -146.191 18.485 -143.199 17.272 -139.232 L 17.272 -104.452 L 11.642 -104.452 L 11.642 -155.172 L 17.032 -155.172 Z M 115.698 -103.512 C 111.385 -103.512 107.488 -104.575 104.008 -106.702 C 100.521 -108.829 97.811 -111.789 95.878 -115.582 C 93.938 -119.382 92.968 -123.642 92.968 -128.362 L 92.968 -130.372 C 92.968 -135.245 93.911 -139.635 95.798 -143.542 C 97.691 -147.449 100.325 -150.519 103.698 -152.752 C 107.078 -154.992 110.735 -156.112 114.668 -156.112 C 120.828 -156.112 125.711 -154.009 129.318 -149.801 C 132.925 -145.602 134.728 -139.862 134.728 -132.582 L 134.728 -129.432 L 98.548 -129.432 L 98.548 -128.362 C 98.548 -122.609 100.195 -117.819 103.488 -113.992 C 106.788 -110.165 110.938 -108.252 115.938 -108.252 C 118.938 -108.252 121.585 -108.799 123.878 -109.892 C 126.178 -110.985 128.265 -112.735 130.138 -115.142 L 133.658 -112.472 C 129.531 -106.499 123.545 -103.512 115.698 -103.512 M 114.668 -151.332 C 110.448 -151.332 106.895 -149.782 104.008 -146.682 C 101.115 -143.589 99.355 -139.435 98.728 -134.222 L 129.158 -134.222 L 129.158 -134.832 C 128.998 -139.704 127.605 -143.672 124.978 -146.732 C 122.358 -149.799 118.921 -151.332 114.668 -151.332 Z" style="fill: rgb(112, 128, 144); white-space: pre;"/>
		<path d="M 155.634 -168.152 L 155.634 -155.172 L 166.134 -155.172 L 166.134 -150.582 L 155.634 -150.582 L 155.634 -116.782 C 155.634 -113.969 156.141 -111.875 157.154 -110.502 C 158.174 -109.122 159.871 -108.432 162.244 -108.432 C 163.184 -108.432 164.701 -108.589 166.794 -108.902 L 167.024 -104.312 C 165.558 -103.779 163.558 -103.512 161.024 -103.512 C 157.184 -103.512 154.388 -104.629 152.634 -106.862 C 150.888 -109.102 150.014 -112.392 150.014 -116.732 L 150.014 -150.582 L 140.684 -150.582 L 140.684 -155.172 L 150.014 -155.172 L 150.014 -168.152 L 155.634 -168.152 Z" style="fill: rgb(44, 54, 66); white-space: pre;"/>
		<path d="M 201.712 -150.392 C 200.525 -150.612 199.259 -150.721 197.912 -150.721 C 194.412 -150.721 191.452 -149.745 189.032 -147.792 C 186.612 -145.839 184.885 -143.002 183.852 -139.282 L 183.852 -104.452 L 178.272 -104.452 L 178.272 -155.172 L 183.762 -155.172 L 183.852 -147.112 C 186.819 -153.112 191.585 -156.112 198.152 -156.112 C 199.712 -156.112 200.945 -155.909 201.852 -155.502 L 201.712 -150.392 Z" style="fill: rgb(44, 54, 67); white-space: pre;"/>
		<path d="M 230.395 -103.512 C 226.081 -103.512 222.185 -104.575 218.705 -106.702 C 215.218 -108.829 212.508 -111.789 210.575 -115.582 C 208.635 -119.382 207.665 -123.642 207.665 -128.362 L 207.665 -130.372 C 207.665 -135.245 208.608 -139.635 210.495 -143.542 C 212.388 -147.449 215.021 -150.519 218.395 -152.752 C 221.775 -154.992 225.431 -156.112 229.365 -156.112 C 235.525 -156.112 240.408 -154.009 244.015 -149.801 C 247.621 -145.602 249.425 -139.862 249.425 -132.582 L 249.425 -129.432 L 213.245 -129.432 L 213.245 -128.362 C 213.245 -122.609 214.891 -117.819 218.185 -113.992 C 221.485 -110.165 225.635 -108.252 230.635 -108.252 C 233.635 -108.252 236.281 -108.799 238.575 -109.892 C 240.875 -110.985 242.961 -112.735 244.835 -115.142 L 248.355 -112.472 C 244.228 -106.499 238.241 -103.512 230.395 -103.512 M 229.365 -151.332 C 225.145 -151.332 221.591 -149.782 218.705 -146.682 C 215.811 -143.589 214.051 -139.435 213.425 -134.222 L 243.855 -134.222 L 243.855 -134.832 C 243.695 -139.704 242.301 -143.672 239.675 -146.732 C 237.055 -149.799 233.618 -151.332 229.365 -151.332 Z M 281.251 -103.512 C 276.938 -103.512 273.041 -104.575 269.561 -106.702 C 266.074 -108.829 263.364 -111.789 261.431 -115.582 C 259.491 -119.382 258.521 -123.642 258.521 -128.362 L 258.521 -130.372 C 258.521 -135.245 259.464 -139.635 261.351 -143.542 C 263.244 -147.449 265.878 -150.519 269.251 -152.752 C 272.631 -154.992 276.288 -156.112 280.221 -156.112 C 286.381 -156.112 291.264 -154.009 294.871 -149.801 C 298.478 -145.602 300.281 -139.862 300.281 -132.582 L 300.281 -129.432 L 264.101 -129.432 L 264.101 -128.362 C 264.101 -122.609 265.748 -117.819 269.041 -113.992 C 272.341 -110.165 276.491 -108.252 281.491 -108.252 C 284.491 -108.252 287.138 -108.799 289.431 -109.892 C 291.731 -110.985 293.818 -112.735 295.691 -115.142 L 299.211 -112.472 C 295.084 -106.499 289.098 -103.512 281.251 -103.512 M 280.221 -151.332 C 276.001 -151.332 272.448 -149.782 269.561 -146.682 C 266.668 -143.589 264.908 -139.435 264.281 -134.222 L 294.711 -134.222 L 294.711 -134.832 C 294.551 -139.704 293.158 -143.672 290.531 -146.732 C 287.911 -149.799 284.474 -151.332 280.221 -151.332 Z" style="fill: rgb(44, 54, 66); white-space: pre;"/>
		<path d="M 331.218 -108.252 C 335.124 -108.252 338.398 -109.352 341.038 -111.552 C 343.678 -113.759 345.108 -116.612 345.328 -120.112 L 350.718 -120.112 C 350.564 -117.019 349.598 -114.199 347.818 -111.652 C 346.031 -109.105 343.661 -107.112 340.708 -105.672 C 337.761 -104.232 334.598 -103.512 331.218 -103.512 C 324.564 -103.512 319.291 -105.825 315.398 -110.452 C 311.511 -115.079 309.568 -121.299 309.568 -129.112 L 309.568 -130.792 C 309.568 -135.792 310.441 -140.215 312.188 -144.062 C 313.941 -147.909 316.448 -150.879 319.708 -152.971 C 322.974 -155.065 326.798 -156.112 331.178 -156.112 C 336.738 -156.112 341.321 -154.454 344.928 -151.142 C 348.541 -147.829 350.471 -143.469 350.718 -138.062 L 345.328 -138.062 C 345.081 -142.029 343.651 -145.232 341.038 -147.672 C 338.431 -150.112 335.144 -151.332 331.178 -151.332 C 326.111 -151.332 322.181 -149.502 319.388 -145.842 C 316.588 -142.189 315.188 -137.064 315.188 -130.472 L 315.188 -128.832 C 315.188 -122.359 316.588 -117.309 319.388 -113.682 C 322.181 -110.062 326.124 -108.252 331.218 -108.252 Z M 394.735 -104.452 C 394.168 -106.045 393.808 -108.405 393.655 -111.532 C 391.688 -108.965 389.181 -106.989 386.135 -105.602 C 383.088 -104.209 379.861 -103.512 376.455 -103.512 C 371.575 -103.512 367.628 -104.872 364.615 -107.592 C 361.601 -110.312 360.095 -113.749 360.095 -117.902 C 360.095 -122.842 362.148 -126.749 366.255 -129.622 C 370.368 -132.495 376.095 -133.932 383.435 -133.932 L 393.605 -133.932 L 393.605 -139.702 C 393.605 -143.329 392.488 -146.178 390.255 -148.252 C 388.021 -150.332 384.765 -151.372 380.485 -151.372 C 376.578 -151.372 373.345 -150.372 370.785 -148.372 C 368.218 -146.372 366.935 -143.965 366.935 -141.152 L 361.315 -141.202 C 361.315 -145.234 363.188 -148.729 366.935 -151.682 C 370.688 -154.635 375.298 -156.112 380.765 -156.112 C 386.418 -156.112 390.878 -154.695 394.145 -151.862 C 397.411 -149.035 399.091 -145.092 399.185 -140.032 L 399.185 -116.032 C 399.185 -111.125 399.701 -107.452 400.735 -105.012 L 400.735 -104.452 L 394.735 -104.452 M 377.105 -108.482 C 380.858 -108.482 384.211 -109.389 387.165 -111.202 C 390.118 -113.015 392.265 -115.439 393.605 -118.472 L 393.605 -129.622 L 383.575 -129.622 C 377.981 -129.562 373.608 -128.538 370.455 -126.552 C 367.295 -124.572 365.715 -121.845 365.715 -118.372 C 365.715 -115.532 366.771 -113.172 368.885 -111.292 C 370.991 -109.419 373.731 -108.482 377.105 -108.482 Z" style="fill: rgb(112, 128, 144); white-space: pre;"/>
	</g>
	<g transform="matrix(0.948767, 0, 0, 0.947573, 66.63475, 65.192078)">
		<path d="M -46.249 -68.799 L -64.552 -68.799 C -65.016 -68.799 -65.467 -68.743 -65.899 -68.638 C -65.863 -68.588 -65.828 -68.535 -65.795 -68.481 L -53.19 -47.913 Z M -69.376 -40.488 L -49.566 -32.484 L -69.748 -65.419 C -70.06 -64.715 -70.233 -63.937 -70.233 -63.118 L -70.233 -40.668 C -69.947 -40.66 -69.657 -40.601 -69.376 -40.488 Z M -41.098 -68.537 L -49.787 -42.389 C -49.79 -42.383 -49.792 -42.377 -49.794 -42.37 L -44.684 -34.031 L -18.747 -68.743 C -19.008 -68.78 -19.276 -68.799 -19.547 -68.799 L -41.026 -68.799 C -41.045 -68.712 -41.068 -68.624 -41.097 -68.538 M -41.097 -68.537 C -41.097 -68.537 -41.097 -68.537 -41.098 -68.537 Z M -13.866 -13.436 L -13.866 -63.118 C -13.866 -64.151 -14.142 -65.12 -14.624 -65.955 L -41.083 -30.545 L -20.586 -13.527 C -18.447 -14.442 -15.998 -14.419 -13.866 -13.436 Z M -25.305 -8.216 L -46.668 -25.952 L -70.233 -35.473 L -70.233 -7.191 C -70.233 -4.054 -67.69 -1.51 -64.552 -1.51 L -24.5 -1.51 C -25.693 -3.545 -25.968 -5.988 -25.305 -8.216 Z" fill="#708090"/>
		<path d="M -14.528 -8.771 C -12.877 -7.229 -12.79 -4.643 -14.334 -2.994 C -15.878 -1.345 -18.468 -1.258 -20.12 -2.799 C -21.771 -4.341 -21.858 -6.928 -20.314 -8.577 C -18.77 -10.225 -16.179 -10.312 -14.528 -8.771" fill="#e45300"/>
	</g>
</svg>
